<?xml version="1.0" encoding="UTF-8" standalone="no"?><!-- Generator: Gravit.io --><svg xmlns="http://www.w3.org/2000/svg" xmlns:xlink="http://www.w3.org/1999/xlink" style="isolation:isolate" viewBox="0 0 150 125" width="150pt" height="125pt"><defs><clipPath id="_clipPath_4FOtjQTLdqpnJ6kF913Qplmeai3lOeKK"><rect width="150" height="125"/></clipPath></defs><g clip-path="url(#_clipPath_4FOtjQTLdqpnJ6kF913Qplmeai3lOeKK)"><g><path d=" M 72.125 14.574 C 70.547 15.027 69.169 16.302 67.661 18.705 C 66.992 19.771 66.1 20.938 65.679 21.295 C 65.101 21.786 64.961 22.099 65.108 22.567 C 65.445 23.64 66.008 23.244 67.419 20.938 C 69.418 17.67 70.33 16.666 71.781 16.141 C 76.584 14.399 80.569 18.526 80.534 25.207 C 80.514 29.185 80.187 29.861 75.293 36.016 L 74.251 37.326 L 74.027 44.742 C 73.904 48.82 73.695 52.648 73.563 53.248 L 73.324 54.339 L 68.775 54.485 C 61.514 54.72 60.517 55.434 54.246 64.883 C 51.451 69.095 48.377 71.224 36.188 77.387 C 22.976 84.068 11.282 90.86 8.778 93.308 C 8.063 94.007 7.083 94.901 6.599 95.296 C 4.86 96.713 2.24 101.85 0.881 106.502 C 0.111 109.139 -0.325 118.451 0.294 119.047 C 1.443 120.152 2.882 117.636 3.335 113.728 C 3.654 110.979 4.719 106.127 5.063 105.854 C 5.228 105.723 4.948 109.275 4.685 110.637 C 4.539 111.395 5.245 111.845 5.525 111.174 C 5.597 111.004 6.139 111.016 7.211 111.214 C 11.862 112.071 15.98 105.751 12.603 102.938 C 11.763 102.238 9.779 101.729 7.89 101.729 L 6.998 101.729 L 7.637 100.456 C 7.988 99.756 8.404 98.826 8.561 98.388 C 9.222 96.54 19.601 89.946 28.446 85.754 C 35.265 82.522 40.998 79.483 46.658 76.099 C 52.333 72.706 52.568 72.477 57.579 65.542 C 62.425 58.833 62.504 58.775 67.194 58.358 C 71.272 57.994 84.034 58.032 85.079 58.41 C 86.464 58.911 89.591 62.252 93.404 67.305 C 96.03 70.784 98.741 73.093 102.749 75.268 C 106.14 77.108 106.387 77.231 118.532 83.104 C 131.525 89.389 141.511 95.453 141.511 97.058 C 141.511 97.242 141.804 97.905 142.162 98.531 C 142.519 99.156 143.061 100.133 143.365 100.699 L 143.92 101.729 L 142.911 101.729 C 141.54 101.729 139.188 103.165 138.83 104.222 C 138.427 105.407 138.591 105.577 142.096 107.615 C 143.723 108.561 143.858 108.825 143.049 109.471 C 141.965 110.337 139.689 110.083 139.689 109.097 C 139.689 108.089 138.945 108.468 138.324 109.789 C 137.995 110.489 137.69 111.118 137.644 111.187 C 137.452 111.476 141.403 111.357 142.142 111.052 C 145.602 109.625 145.817 107.341 142.65 105.675 C 140.175 104.372 139.711 103.523 141.242 103.094 C 142.49 102.743 143.637 103.079 143.637 103.794 C 143.637 104.42 144.389 104.646 144.629 104.092 C 144.883 103.506 145.799 107.429 146.392 111.646 C 147.066 116.436 147.005 116.225 148.127 117.641 C 150.075 120.097 150.412 118.609 149.56 111.305 C 148.712 104.017 147.634 100.28 145.299 96.518 C 143.763 94.044 140.185 90.103 139.774 90.431 C 139.683 90.503 138.773 89.983 137.751 89.276 C 133.803 86.54 126.826 82.821 116.459 77.924 C 100.166 70.228 97.969 68.839 94.631 64.132 C 88.247 55.126 87.243 54.464 79.981 54.461 C 77.157 54.461 75.908 54.371 75.695 54.157 C 75.187 53.643 74.975 50.715 75 44.544 C 75.026 37.883 75.015 37.928 77.55 34.863 C 82.06 29.412 82.933 23.745 80.038 18.7 C 78.002 15.153 75.201 13.693 72.125 14.574 Z  M 16.137 99.762 C 15.808 99.931 15.764 100.377 15.934 101.823 C 16.281 104.775 17.022 104.071 17.687 100.154 C 17.778 99.617 16.862 99.385 16.137 99.762 Z  M 18.373 102.335 C 18.471 102.602 18.633 103.174 18.732 103.608 C 18.945 104.541 19.743 104.681 19.743 103.784 C 19.743 103.11 20.875 102.529 21.697 102.781 C 22.582 103.052 22.387 110.397 21.492 110.499 C 21.119 110.542 20.773 110.741 20.725 110.941 C 20.651 111.246 21.071 111.292 23.379 111.226 C 26.069 111.15 26.971 110.822 25.248 110.547 C 23.677 110.297 23.36 102.699 24.92 102.699 C 25.986 102.699 26.424 102.989 26.424 103.694 C 26.424 104.791 27.134 104.527 27.719 103.212 C 28.009 102.561 28.246 101.987 28.246 101.937 C 28.246 101.887 25.985 101.847 23.22 101.849 C 18.337 101.851 18.199 101.864 18.373 102.335 Z  M 32.046 102.344 C 27.358 104.9 27.694 110.578 32.577 111.309 C 35.398 111.732 38.57 108.758 38.57 105.69 C 38.57 102.503 35.059 100.702 32.046 102.344 Z  M 39.994 102.074 C 39.933 102.218 40.248 102.459 40.695 102.61 L 41.504 102.883 L 41.384 106.124 C 41.24 109.978 41.574 110.696 43.758 111.217 C 44.909 111.494 45.135 111.472 46.202 110.981 C 47.164 110.539 47.377 110.508 47.377 110.812 C 47.377 111.107 47.781 111.183 49.35 111.183 C 51.307 111.183 51.994 110.842 50.601 110.563 C 49.118 110.266 48.981 102.941 50.451 102.568 C 51.914 102.197 50.941 101.851 48.439 101.851 C 45.789 101.851 44.88 102.246 46.769 102.578 L 47.68 102.737 L 47.68 106.073 L 47.68 109.408 L 46.907 109.69 C 45.786 110.097 44.811 110.037 43.994 109.507 C 43.031 108.884 42.886 103.58 43.809 102.765 C 44.101 102.508 44.34 102.196 44.339 102.073 C 44.338 101.754 40.129 101.754 39.994 102.074 Z  M 56.3 102.351 C 54.038 103.539 52.609 105.942 52.958 107.973 C 53.469 110.953 56.412 112.228 59.266 110.708 C 61.42 109.562 61.718 108.613 59.639 109.522 C 57.976 110.249 56.392 110.014 55.657 108.93 C 54.93 107.862 54.928 104.731 55.651 103.849 C 56.62 102.669 59.523 102.633 59.523 103.801 C 59.523 104.617 60.316 104.562 60.577 103.729 C 60.691 103.362 61.001 102.871 61.266 102.637 C 62.449 101.589 58.214 101.344 56.3 102.351 Z  M 62.382 101.952 C 62.084 102.191 62.306 102.413 62.975 102.548 C 64.433 102.84 64.444 110.269 62.989 110.561 C 61.283 110.903 62.583 111.304 65.143 111.226 C 67.72 111.147 68.53 110.816 66.81 110.541 L 65.899 110.396 L 65.899 108.487 L 65.899 106.578 L 68.33 106.578 L 70.758 106.578 L 70.755 107.608 C 70.749 109.415 70.43 110.405 69.812 110.534 C 68.077 110.896 69.341 111.301 71.972 111.226 C 74.683 111.149 75.553 110.821 73.791 110.54 C 72.608 110.351 72.538 110.082 72.645 106.092 L 72.732 102.82 L 73.724 102.587 C 75.401 102.193 74.648 101.899 71.881 101.867 C 69.377 101.838 68.245 102.193 69.802 102.517 C 70.372 102.636 70.758 103.592 70.758 104.884 C 70.758 105.643 69.679 105.878 67.191 105.659 L 65.899 105.545 L 65.899 104.142 C 65.899 102.779 65.927 102.733 66.81 102.578 C 67.312 102.49 67.721 102.29 67.721 102.134 C 67.721 101.866 62.704 101.694 62.382 101.952 Z  M 79.483 102.219 C 74.265 104.481 75.195 112.134 80.591 111.326 C 81.574 111.178 84.119 109.663 84.119 109.225 C 84.119 108.875 83.323 108.963 82.912 109.358 C 81.345 110.866 78.046 109.469 78.046 107.3 C 78.046 106.49 81.492 106.683 81.638 107.5 C 81.82 108.528 82.438 107.893 82.495 106.62 C 82.55 105.413 82.076 104.912 81.539 105.608 C 81.272 105.951 78.046 105.921 78.046 105.575 C 78.046 104.612 78.809 103.433 79.602 103.172 C 80.965 102.721 82.601 103.064 82.601 103.801 C 82.601 104.717 83.414 104.524 83.642 103.554 C 83.751 103.091 84.073 102.608 84.357 102.482 C 85.181 102.113 84.545 101.878 82.514 101.798 C 81.062 101.741 80.364 101.838 79.483 102.219 Z  M 85.03 102.149 C 85.03 102.313 85.36 102.513 85.762 102.593 C 86.463 102.734 89.384 105.859 89.384 106.468 C 89.384 107.019 85.893 110.413 85.178 110.557 C 83.49 110.895 84.741 111.305 87.464 111.305 C 90.249 111.305 91.218 110.916 89.282 110.577 C 88.157 110.38 88.156 110.404 89.395 108.668 L 90.411 107.244 L 91.368 108.772 C 91.895 109.613 92.25 110.49 92.158 110.723 C 92.01 111.094 92.267 111.154 94.288 111.225 C 96.514 111.302 97.699 110.725 95.766 110.503 C 95.341 110.455 94.528 109.719 93.392 108.355 L 91.662 106.281 L 92.37 105.518 C 92.759 105.098 93.488 104.298 93.989 103.741 C 94.534 103.133 95.234 102.664 95.734 102.573 C 97.471 102.252 96.661 101.805 94.443 101.86 C 93.274 101.889 92.32 101.98 92.326 102.061 C 92.331 102.143 92.413 102.371 92.508 102.569 C 92.603 102.767 92.284 103.479 91.798 104.151 L 90.914 105.372 L 90.107 104.122 C 89.247 102.791 89.269 102.456 90.21 102.456 C 90.535 102.456 90.8 102.32 90.8 102.153 C 90.8 101.933 90.021 101.851 87.916 101.851 C 85.834 101.851 85.03 101.933 85.03 102.149 Z  M 99.055 101.895 C 97.159 101.994 96.513 102.476 98.036 102.655 C 98.681 102.731 98.695 102.817 98.695 106.568 L 98.695 110.404 L 97.937 110.556 C 96.147 110.914 97.176 111.305 99.909 111.305 C 102.684 111.305 103.764 110.865 101.772 110.547 C 100.74 110.382 100.307 107.96 100.697 104.531 L 100.905 102.699 L 102.06 102.699 C 104.861 102.699 104.948 105.708 102.164 106.301 C 100.856 106.58 100.877 107.062 102.197 107.062 C 104.665 107.062 106.395 105.716 106.231 103.921 C 106.066 102.113 104.32 101.62 99.055 101.895 Z  M 110.655 102.351 C 108.381 103.545 106.965 105.942 107.318 108 C 107.82 110.924 110.807 112.207 113.622 110.708 C 115.764 109.568 116.061 108.66 114.021 109.49 C 111.508 110.513 110.115 109.934 109.488 107.608 L 109.275 106.82 L 111.1 106.82 C 112.762 106.82 112.934 106.869 113.023 107.365 C 113.199 108.357 113.725 107.818 113.82 106.55 C 113.904 105.423 113.861 105.322 113.364 105.501 C 113.062 105.61 112.024 105.743 111.057 105.797 L 109.298 105.894 L 109.507 105.206 C 110.091 103.281 110.886 102.757 112.793 103.043 C 113.688 103.177 113.879 103.31 113.879 103.801 C 113.879 104.617 114.671 104.562 114.932 103.729 C 115.047 103.362 115.357 102.871 115.621 102.637 C 116.804 101.589 112.571 101.344 110.655 102.351 Z  M 118.813 101.894 C 116.866 101.997 116.347 102.29 117.648 102.551 C 119.13 102.848 119.141 110.262 117.66 110.558 C 115.943 110.902 117.234 111.304 119.803 111.226 C 122.38 111.147 123.189 110.816 121.47 110.541 L 120.559 110.396 L 120.559 106.547 L 120.559 102.699 L 121.727 102.699 C 124.523 102.699 124.752 105.431 122.002 105.979 C 121.064 106.165 120.856 106.82 121.733 106.82 C 122.455 106.82 123.596 108.919 123.596 110.246 L 123.596 111.183 L 125.552 111.183 C 127.585 111.183 128.45 110.828 127.085 110.555 C 126.481 110.434 126.022 109.959 125.109 108.509 L 123.92 106.622 L 124.695 106.217 C 126.408 105.321 126.649 102.87 125.089 102.203 C 124.384 101.903 121.418 101.756 118.813 101.894 Z  M 127.544 102.046 C 127.543 103.592 128.783 104.94 129.016 103.65 C 129.139 102.975 129.548 102.708 130.466 102.703 C 131.316 102.698 131.492 103.442 131.486 107.032 C 131.481 110.062 131.404 110.298 130.336 110.565 C 129.718 110.719 129.485 111.248 130.056 111.201 C 130.178 111.191 131.438 111.183 132.857 111.183 C 135.426 111.183 136.358 110.833 134.555 110.545 C 133.408 110.362 133.322 110.056 133.317 106.168 C 133.313 102.738 133.39 102.567 134.838 102.822 C 135.589 102.953 135.743 103.1 135.743 103.688 C 135.743 104.155 135.896 104.396 136.198 104.396 C 136.471 104.396 136.654 104.172 136.654 103.836 C 136.654 103.528 136.854 103.064 137.099 102.806 C 137.957 101.9 137.704 101.846 132.554 101.849 C 129.798 101.85 127.544 101.939 127.544 102.046 Z  M 9.991 103.094 C 11.398 103.882 12.008 106.622 11.246 108.744 C 10.884 109.752 10.508 109.963 9.064 109.967 C 6.946 109.975 6.989 110.052 6.989 106.188 L 6.989 102.699 L 8.136 102.699 C 8.767 102.699 9.602 102.877 9.991 103.094 Z  M 35.221 103.541 C 37.058 104.868 36.735 109.376 34.761 109.975 C 32.35 110.707 30.216 107.823 31.003 104.895 C 31.509 103.013 33.573 102.351 35.221 103.541 Z  M 37.985 114.004 C 37.284 114.714 36.984 123.061 37.659 123.061 C 37.85 123.061 37.963 121.537 37.963 118.973 C 37.963 115.252 38.018 114.829 38.57 114.268 C 38.905 113.929 39.178 113.587 39.178 113.508 C 39.178 113.162 38.563 113.416 37.985 114.004 Z  M 56.992 113.526 C 56.54 113.887 56.812 115.504 57.431 116.132 C 58.023 116.732 58.034 116.815 57.583 117.213 C 57.061 117.674 56.829 123.304 57.333 123.304 C 57.465 123.304 58.227 122.773 59.026 122.125 C 61.436 120.172 61.394 118.55 58.88 116.534 C 57.42 115.363 57.332 115.222 57.482 114.324 C 57.633 113.425 57.464 113.15 56.992 113.526 Z  M 104.184 114.004 C 103.482 114.714 103.183 123.061 103.858 123.061 C 104.048 123.061 104.161 121.532 104.161 118.959 C 104.161 114.899 104.17 114.849 104.948 114.111 C 105.53 113.558 105.614 113.364 105.273 113.364 C 105.02 113.364 104.53 113.653 104.184 114.004 Z  M 117.965 114.93 C 117.211 115.531 116.994 116.032 117.488 116.032 C 117.636 116.032 117.981 115.759 118.254 115.425 C 118.854 114.693 119.664 114.648 120.408 115.305 C 121.597 116.354 119.749 117.636 118.331 116.746 C 117.619 116.299 117.608 116.301 116.593 117.138 L 115.57 117.98 L 116.669 118.857 L 117.768 119.734 L 118.739 119.181 C 119.789 118.585 120.057 118.69 120.445 119.854 C 120.763 120.808 119.423 122.577 118.381 122.577 C 117.719 122.577 116.509 120.823 116.861 120.373 C 117.155 119.998 117.141 119.909 116.786 119.909 C 115.598 119.909 116.088 121.638 117.593 122.762 L 118.33 123.311 L 119.369 122.754 C 121.199 121.773 121.638 119.759 120.31 118.449 L 119.749 117.896 L 118.782 118.467 L 117.814 119.039 L 117.156 118.513 C 116.154 117.713 117.104 116.871 118.418 117.394 C 119.83 117.957 121.47 117.162 121.47 115.915 C 121.47 115.357 120.095 114.334 119.345 114.334 C 118.995 114.334 118.375 114.603 117.965 114.93 Z  M 97.269 115.705 C 97.163 115.925 97.235 116.582 97.43 117.163 C 97.962 118.75 97.907 122.114 97.352 121.944 C 96.769 121.766 95.659 122.266 95.659 122.706 C 95.659 123.159 96.087 123.162 96.555 122.712 C 97.234 122.058 97.784 122.553 97.784 123.815 C 97.784 124.466 97.921 125 98.088 125 C 98.255 125 98.392 124.496 98.392 123.88 C 98.392 122.932 98.459 122.804 98.829 123.049 C 100.852 124.389 102.825 119.041 101.129 116.819 C 100.404 115.872 100.218 115.856 99.055 116.637 C 98.043 117.317 97.613 117.022 97.97 115.891 C 98.179 115.222 97.578 115.063 97.269 115.705 Z  M 12.041 115.978 C 11.929 116.122 11.977 116.309 12.147 116.392 C 12.325 116.481 12.455 117.663 12.455 119.202 C 12.455 122.334 13.034 122.979 14.871 121.896 L 15.753 121.375 L 16.097 122.206 C 16.632 123.503 15.82 124.505 14.226 124.512 C 13.11 124.517 12.455 124.285 12.455 123.884 C 12.455 123.465 12.817 123.45 13.335 123.849 C 13.653 124.094 13.708 124.059 13.619 123.667 C 13.449 122.916 12.032 123.005 11.895 123.775 C 11.755 124.569 12.56 125 14.184 125 C 16.44 125 17.395 123.749 16.568 121.879 C 16.306 121.287 16.096 120.003 16.092 118.97 C 16.086 117.067 15.456 115.839 14.603 116.066 C 14.348 116.133 14.428 116.361 14.863 116.802 C 15.87 117.824 15.776 120.666 14.713 121.333 C 13.331 122.201 13.062 121.836 13.062 119.081 C 13.062 116.697 12.592 115.266 12.041 115.978 Z  M 19.364 116.558 L 18.225 117.291 L 18.225 120.161 C 18.225 123.537 18.239 123.552 20.286 122.306 L 21.869 121.342 L 21.869 119.092 C 21.869 117.072 21.8 116.792 21.186 116.334 L 20.503 115.825 L 19.364 116.558 Z  M 23.002 115.934 C 22.879 116.032 23.003 116.312 23.278 116.554 C 23.689 116.916 23.748 117.345 23.61 118.954 C 23.322 122.311 24.241 123.733 26.004 122.659 C 26.769 122.193 27.031 122.127 27.031 122.397 C 27.031 122.807 27.756 123.371 28.017 123.163 C 28.111 123.088 27.997 122.735 27.763 122.377 C 27.469 121.929 27.337 120.845 27.336 118.88 C 27.335 117.143 27.217 116.032 27.031 116.032 C 26.847 116.032 26.727 117.117 26.727 118.802 L 26.727 121.574 L 25.811 122.094 L 24.896 122.615 L 24.47 121.808 C 24.166 121.229 24.092 120.417 24.209 118.94 C 24.371 116.911 23.742 115.343 23.002 115.934 Z  M 41.408 116.762 C 39.668 117.821 39.491 118.159 39.485 120.436 C 39.479 122.978 40.275 123.794 41.816 122.826 L 42.617 122.323 L 43.326 122.856 C 43.907 123.291 44.036 123.316 44.036 122.997 C 44.036 122.781 43.899 122.537 43.733 122.455 C 43.555 122.367 43.429 121.003 43.429 119.182 C 43.429 115.543 43.423 115.535 41.408 116.762 Z  M 44.644 115.882 C 44.644 115.933 44.85 116.288 45.103 116.671 C 45.457 117.205 45.517 117.811 45.369 119.316 C 45.12 121.849 46.001 123.635 47.167 122.957 C 48.328 122.281 48.578 122.268 49.189 122.853 C 49.673 123.316 49.788 123.347 49.795 123.015 C 49.801 122.789 49.669 122.537 49.502 122.455 C 49.325 122.367 49.199 120.998 49.199 119.169 C 49.199 117.239 49.082 116.032 48.895 116.032 C 48.71 116.032 48.591 117.107 48.591 118.773 L 48.591 121.516 L 47.689 122.047 L 46.787 122.58 L 46.29 121.814 C 45.888 121.192 45.834 120.662 46.006 119.016 C 46.18 117.351 46.13 116.876 45.728 116.387 C 45.312 115.881 44.644 115.57 44.644 115.882 Z  M 82.905 115.882 C 82.905 115.933 83.108 116.288 83.355 116.67 C 83.689 117.181 83.757 117.783 83.619 118.972 C 83.398 120.869 83.623 121.998 84.378 122.782 L 84.927 123.352 L 85.792 122.757 L 86.656 122.164 L 87.352 122.795 C 87.901 123.292 88.05 123.338 88.058 123.015 C 88.063 122.789 87.931 122.537 87.763 122.455 C 87.587 122.367 87.46 120.998 87.46 119.169 C 87.46 117.239 87.343 116.032 87.156 116.032 C 86.973 116.032 86.845 117.111 86.836 118.759 C 86.819 121.458 86.81 121.491 85.958 122.027 C 84.597 122.884 84.272 122.335 84.268 119.18 C 84.267 117.348 84.144 116.468 83.852 116.187 C 83.479 115.829 82.905 115.644 82.905 115.882 Z  M 112.441 116.729 C 110.603 117.891 110.479 118.16 110.6 120.73 C 110.712 123.097 111.353 123.694 112.804 122.783 L 113.648 122.253 L 114.198 122.836 C 114.872 123.548 115.397 123.249 114.779 122.505 C 114.471 122.135 114.288 121.009 114.182 118.848 L 114.03 115.725 L 112.441 116.729 Z  M 122.013 115.922 C 121.899 116.012 122.022 116.352 122.287 116.674 C 122.677 117.149 122.73 117.64 122.565 119.22 C 122.269 122.054 123.374 123.952 124.658 122.818 C 125.361 122.199 125.637 122.209 126.379 122.879 L 126.982 123.425 L 126.751 122.818 C 126.625 122.486 126.47 120.822 126.408 119.122 C 126.267 115.275 125.722 114.998 125.722 118.773 L 125.722 121.516 L 124.802 122.058 L 123.882 122.601 L 123.433 121.744 C 123.097 121.102 123.032 120.385 123.176 118.883 C 123.362 116.927 122.739 115.342 122.013 115.922 Z  M 30.603 116.434 C 30.182 116.771 30.018 116.785 29.621 116.522 C 29.048 116.142 28.587 116.4 29.101 116.811 C 29.339 117.001 29.46 118.107 29.46 120.079 C 29.46 121.906 29.578 123.061 29.764 123.061 C 29.947 123.061 30.071 122.025 30.078 120.455 C 30.089 118.107 30.158 117.782 30.783 117.172 L 31.477 116.496 L 31.837 117.126 C 32.035 117.472 32.332 117.689 32.497 117.607 C 32.891 117.412 32.01 116.032 31.491 116.032 C 31.281 116.032 30.881 116.212 30.603 116.434 Z  M 50.907 116.455 C 51.048 116.689 51.206 118.27 51.26 119.97 C 51.379 123.748 51.932 124.132 51.932 120.437 C 51.932 118.007 51.983 117.773 52.634 117.285 C 54.085 116.198 54.873 117.396 54.531 120.168 C 54.312 121.946 54.954 123.655 55.636 123.109 C 55.851 122.937 55.793 122.682 55.45 122.294 C 55.042 121.83 54.987 121.374 55.149 119.773 C 55.44 116.884 54.472 115.516 52.825 116.488 C 51.957 117.001 51.952 117.001 51.628 116.517 C 51.221 115.91 50.544 115.852 50.907 116.455 Z  M 63.321 116.514 C 62.806 116.969 62.752 116.971 62.388 116.575 C 61.88 116.02 61.506 116.335 61.928 116.964 C 62.109 117.234 62.256 118.712 62.256 120.258 C 62.256 121.965 62.375 123.061 62.56 123.061 C 62.744 123.061 62.864 121.983 62.864 120.311 C 62.864 117.899 62.935 117.509 63.451 117.136 C 64.079 116.683 64.686 116.802 64.686 117.379 C 64.686 117.571 64.822 117.728 64.988 117.728 C 65.437 117.728 65.357 117.183 64.82 116.57 C 64.238 115.908 64.018 115.899 63.321 116.514 Z  M 65.823 116.321 C 66.037 116.527 66.217 117.733 66.268 119.313 C 66.369 122.37 67.091 123.119 68.744 121.879 L 69.472 121.334 L 69.811 122.113 C 70.281 123.19 70.243 123.473 69.543 124.031 C 68.642 124.751 66.204 124.644 66.204 123.884 C 66.204 123.47 66.568 123.448 67.048 123.833 C 67.563 124.244 67.887 123.876 67.412 123.419 C 66.824 122.853 65.769 123.066 65.643 123.775 C 65.504 124.559 66.304 125 67.864 125 C 70.271 125 71.231 123.685 70.32 121.637 C 70.06 121.053 69.847 119.796 69.847 118.842 C 69.847 117.034 69.346 116.032 68.443 116.032 C 68.079 116.032 68.123 116.187 68.655 116.783 C 69.809 118.077 69.817 120.601 68.668 121.304 C 67.112 122.256 66.841 121.911 66.744 118.86 C 66.667 116.394 66.607 116.151 66.061 116.067 C 65.574 115.992 65.531 116.039 65.823 116.321 Z  M 79.209 116.724 L 78.198 117.445 L 78.094 120.159 C 77.968 123.473 78.12 123.65 80.07 122.464 C 81.85 121.381 81.947 121.208 81.968 119.061 C 81.997 116.248 81.028 115.428 79.209 116.724 Z  M 89.163 116.516 C 89.289 116.85 89.444 118.459 89.507 120.091 C 89.65 123.846 90.193 124.019 90.193 120.311 C 90.193 117.841 90.257 117.515 90.818 117.109 C 91.426 116.67 91.994 116.878 92.011 117.546 C 92.013 117.646 92.152 117.728 92.318 117.728 C 92.811 117.728 92.667 117.098 92.033 116.482 L 91.445 115.91 L 90.774 116.438 L 90.102 116.965 L 89.517 116.438 L 88.932 115.91 L 89.163 116.516 Z  M 106.933 116.649 C 105.396 117.681 105.493 122.349 107.066 123.009 C 107.576 123.223 107.858 123.166 108.584 122.704 C 109.709 121.986 109.415 121.693 108.144 122.266 C 105.842 123.304 105.825 119.985 108.126 118.613 L 109.661 117.699 L 109.11 116.945 C 108.374 115.939 108.054 115.895 106.933 116.649 Z  M 127.857 116.32 C 127.851 116.545 127.983 116.797 128.151 116.88 C 128.327 116.967 128.455 118.296 128.455 120.045 C 128.455 121.894 128.572 123.061 128.758 123.061 C 128.942 123.061 129.062 122.019 129.062 120.421 C 129.062 118.141 129.144 117.704 129.665 117.21 L 130.268 116.637 L 130.872 117.243 C 131.427 117.798 131.477 117.809 131.475 117.364 C 131.468 116.217 130.393 115.743 129.527 116.507 C 128.993 116.979 128.983 116.978 128.427 116.446 C 127.962 116 127.866 115.979 127.857 116.32 Z  M 133.29 116.74 C 131.984 117.782 131.918 121.995 133.193 122.796 C 134.029 123.32 134.633 123.23 135.431 122.462 C 136.024 121.892 135.601 121.753 134.704 122.222 C 132.808 123.214 132.116 120.048 133.998 118.997 C 136.229 117.751 136.13 117.885 135.546 116.907 C 134.911 115.846 134.452 115.812 133.29 116.74 Z  M 21.261 119.07 L 21.261 121.081 L 20.047 121.849 L 18.832 122.617 L 18.832 120.161 C 18.832 117.816 18.869 117.678 19.636 117.111 C 20.88 116.19 21.261 116.65 21.261 119.07 Z  M 42 122.029 C 39.581 123.581 39.061 118.985 41.471 117.368 L 42.669 116.563 L 42.758 119.025 C 42.847 121.463 42.84 121.49 42 122.029 Z  M 81.332 118.571 C 81.501 120.706 81.293 121.189 79.874 121.938 L 78.653 122.583 L 78.653 120.259 C 78.653 116.485 81.045 114.979 81.332 118.571 Z  M 100.811 117.227 C 101.965 118.95 100.524 122.935 98.923 122.445 C 98.046 122.176 98.15 118.087 99.051 117.32 C 99.857 116.635 100.395 116.607 100.811 117.227 Z  M 108.544 117.166 C 108.725 117.543 107.454 118.665 106.819 118.689 C 106.393 118.705 106.589 117.647 107.093 117.201 C 107.721 116.649 108.288 116.634 108.544 117.166 Z  M 112.903 122.102 C 111.62 122.962 111.307 122.653 111.209 120.43 L 111.12 118.41 L 112.271 117.542 L 113.423 116.675 L 113.51 119.156 C 113.591 121.485 113.554 121.665 112.903 122.102 Z  M 134.968 117.178 C 135.109 117.473 134.874 117.791 134.165 118.254 C 133.215 118.878 133.155 118.887 133.062 118.428 C 132.84 117.347 134.52 116.246 134.968 117.178 Z  M 59.531 117.91 C 60.53 118.921 60.227 120.429 58.797 121.572 L 57.701 122.447 L 57.701 120.136 C 57.701 117.22 58.222 116.586 59.531 117.91 Z  M 71.973 122.296 C 71.973 122.427 72.144 122.586 72.353 122.647 C 72.641 122.732 72.609 122.939 72.218 123.51 C 71.599 124.418 72.046 124.779 72.742 123.931 C 73.347 123.195 73.222 122.246 72.504 122.137 C 72.213 122.092 71.973 122.164 71.973 122.296 Z " fill-rule="evenodd" fill="rgb(250,250,251)"/><path d=" M 72.429 0.265 C 71.761 0.459 70.828 0.978 70.356 1.419 C 68.007 3.618 4.92 96.559 6.979 94.789 C 7.115 94.673 7.906 93.919 8.738 93.111 C 11.086 90.835 22.01 84.418 33.257 78.71 C 48.176 71.137 50.931 69.345 53.586 65.49 C 61.084 54.605 61.649 54.241 71.117 54.221 C 73.65 54.217 73.397 55.011 73.786 45.855 C 74.184 36.556 73.929 37.543 76.974 33.498 C 81.892 26.965 81.834 20.938 76.815 16.931 C 73.746 14.482 70.856 15.723 67.752 20.826 C 66.106 23.533 65.521 23.943 64.967 22.778 C 64.712 22.244 64.768 22.013 65.273 21.506 C 65.613 21.166 66.388 20.178 66.997 19.311 C 69.924 15.146 71.159 14.221 73.793 14.221 C 82.121 14.221 84.537 26.891 77.745 34.947 C 74.967 38.24 75.161 37.439 75.164 45.612 C 75.166 49.612 75.267 53.167 75.386 53.513 L 75.605 54.142 L 80.448 54.286 C 87.645 54.5 88.436 55.063 95.673 65.126 C 98.447 68.983 99.814 69.799 118.434 78.702 C 128.498 83.513 135.177 87.118 138.591 89.583 C 139.072 89.931 139.414 90.096 139.35 89.952 C 139.046 89.26 79.392 2.363 78.751 1.675 C 77.378 0.206 74.698 -0.392 72.429 0.265 Z  M 71.062 58.351 C 62.64 58.615 62.717 58.571 57.263 66.265 C 53.012 72.263 52.588 72.676 47.467 75.8 C 42.024 79.121 36.741 81.955 30.068 85.136 C 18.616 90.596 7.681 97.612 8.858 98.744 C 9.894 99.74 13.757 100.154 16.393 99.55 C 17.085 99.392 17.543 99.392 17.742 99.55 C 18.271 99.973 137.705 99.871 138.718 99.447 C 140.246 98.808 141.607 97.476 141.26 96.959 C 139.743 94.696 130.577 89.068 120.711 84.343 C 99.153 74.016 97.186 72.804 93.092 67.308 C 85.643 57.308 86.983 57.852 71.062 58.351 Z " fill-rule="evenodd" fill="rgb(92,148,243)"/><g><path d=" M 72.125 14.574 C 70.547 15.027 69.169 16.302 67.661 18.705 C 66.992 19.771 66.1 20.938 65.679 21.295 C 65.101 21.786 64.961 22.099 65.108 22.567 C 65.445 23.64 66.008 23.244 67.419 20.938 C 69.418 17.67 70.33 16.666 71.781 16.141 C 76.584 14.399 80.569 18.526 80.534 25.207 C 80.514 29.185 80.187 29.861 75.293 36.016 L 74.251 37.326 L 74.027 44.742 C 73.904 48.82 73.695 52.648 73.563 53.248 L 73.324 54.339 L 68.775 54.485 C 61.514 54.72 60.517 55.434 54.246 64.883 C 51.451 69.095 48.377 71.224 36.188 77.387 C 22.976 84.068 11.282 90.86 8.778 93.308 C 8.063 94.007 7.083 94.901 6.599 95.296 C 4.86 96.713 2.24 101.85 0.881 106.502 C 0.111 109.139 -0.325 118.451 0.294 119.047 C 1.443 120.152 2.882 117.636 3.335 113.728 C 3.654 110.979 4.719 106.127 5.063 105.854 C 5.228 105.723 4.948 109.275 4.685 110.637 C 4.539 111.395 5.245 111.845 5.525 111.174 C 5.597 111.004 6.139 111.016 7.211 111.214 C 11.862 112.071 15.98 105.751 12.603 102.938 C 11.763 102.238 9.779 101.729 7.89 101.729 L 6.998 101.729 L 7.637 100.456 C 7.988 99.756 8.404 98.826 8.561 98.388 C 9.222 96.54 19.601 89.946 28.446 85.754 C 35.265 82.522 40.998 79.483 46.658 76.099 C 52.333 72.706 52.568 72.477 57.579 65.542 C 62.425 58.833 62.504 58.775 67.194 58.358 C 71.272 57.994 84.034 58.032 85.079 58.41 C 86.464 58.911 89.591 62.252 93.404 67.305 C 96.03 70.784 98.741 73.093 102.749 75.268 C 106.14 77.108 106.387 77.231 118.532 83.104 C 131.525 89.389 141.511 95.453 141.511 97.058 C 141.511 97.242 141.804 97.905 142.162 98.531 C 142.519 99.156 143.061 100.133 143.365 100.699 L 143.92 101.729 L 142.911 101.729 C 141.54 101.729 139.188 103.165 138.83 104.222 C 138.427 105.407 138.591 105.577 142.096 107.615 C 143.723 108.561 143.858 108.825 143.049 109.471 C 141.965 110.337 139.689 110.083 139.689 109.097 C 139.689 108.089 138.945 108.468 138.324 109.789 C 137.995 110.489 137.69 111.118 137.644 111.187 C 137.452 111.476 141.403 111.357 142.142 111.052 C 145.602 109.625 145.817 107.341 142.65 105.675 C 140.175 104.372 139.711 103.523 141.242 103.094 C 142.49 102.743 143.637 103.079 143.637 103.794 C 143.637 104.42 144.389 104.646 144.629 104.092 C 144.883 103.506 145.799 107.429 146.392 111.646 C 147.066 116.436 147.005 116.225 148.127 117.641 C 150.075 120.097 150.412 118.609 149.56 111.305 C 148.712 104.017 147.634 100.28 145.299 96.518 C 143.763 94.044 140.185 90.103 139.774 90.431 C 139.683 90.503 138.773 89.983 137.751 89.276 C 133.803 86.54 126.826 82.821 116.459 77.924 C 100.166 70.228 97.969 68.839 94.631 64.132 C 88.247 55.126 87.243 54.464 79.981 54.461 C 77.157 54.461 75.908 54.371 75.695 54.157 C 75.187 53.643 74.975 50.715 75 44.544 C 75.026 37.883 75.015 37.928 77.55 34.863 C 82.06 29.412 82.933 23.745 80.038 18.7 C 78.002 15.153 75.201 13.693 72.125 14.574 Z  M 16.137 99.762 C 15.808 99.931 15.764 100.377 15.934 101.823 C 16.281 104.775 17.022 104.071 17.687 100.154 C 17.778 99.617 16.862 99.385 16.137 99.762 Z  M 18.373 102.335 C 18.471 102.602 18.633 103.174 18.732 103.608 C 18.945 104.541 19.743 104.681 19.743 103.784 C 19.743 103.11 20.875 102.529 21.697 102.781 C 22.582 103.052 22.387 110.397 21.492 110.499 C 21.119 110.542 20.773 110.741 20.725 110.941 C 20.651 111.246 21.071 111.292 23.379 111.226 C 26.069 111.15 26.971 110.822 25.248 110.547 C 23.677 110.297 23.36 102.699 24.92 102.699 C 25.986 102.699 26.424 102.989 26.424 103.694 C 26.424 104.791 27.134 104.527 27.719 103.212 C 28.009 102.561 28.246 101.987 28.246 101.937 C 28.246 101.887 25.985 101.847 23.22 101.849 C 18.337 101.851 18.199 101.864 18.373 102.335 Z  M 32.046 102.344 C 27.358 104.9 27.694 110.578 32.577 111.309 C 35.398 111.732 38.57 108.758 38.57 105.69 C 38.57 102.503 35.059 100.702 32.046 102.344 Z  M 39.994 102.074 C 39.933 102.218 40.248 102.459 40.695 102.61 L 41.504 102.883 L 41.384 106.124 C 41.24 109.978 41.574 110.696 43.758 111.217 C 44.909 111.494 45.135 111.472 46.202 110.981 C 47.164 110.539 47.377 110.508 47.377 110.812 C 47.377 111.107 47.781 111.183 49.35 111.183 C 51.307 111.183 51.994 110.842 50.601 110.563 C 49.118 110.266 48.981 102.941 50.451 102.568 C 51.914 102.197 50.941 101.851 48.439 101.851 C 45.789 101.851 44.88 102.246 46.769 102.578 L 47.68 102.737 L 47.68 106.073 L 47.68 109.408 L 46.907 109.69 C 45.786 110.097 44.811 110.037 43.994 109.507 C 43.031 108.884 42.886 103.58 43.809 102.765 C 44.101 102.508 44.34 102.196 44.339 102.073 C 44.338 101.754 40.129 101.754 39.994 102.074 Z  M 56.3 102.351 C 54.038 103.539 52.609 105.942 52.958 107.973 C 53.469 110.953 56.412 112.228 59.266 110.708 C 61.42 109.562 61.718 108.613 59.639 109.522 C 57.976 110.249 56.392 110.014 55.657 108.93 C 54.93 107.862 54.928 104.731 55.651 103.849 C 56.62 102.669 59.523 102.633 59.523 103.801 C 59.523 104.617 60.316 104.562 60.577 103.729 C 60.691 103.362 61.001 102.871 61.266 102.637 C 62.449 101.589 58.214 101.344 56.3 102.351 Z  M 62.382 101.952 C 62.084 102.191 62.306 102.413 62.975 102.548 C 64.433 102.84 64.444 110.269 62.989 110.561 C 61.283 110.903 62.583 111.304 65.143 111.226 C 67.72 111.147 68.53 110.816 66.81 110.541 L 65.899 110.396 L 65.899 108.487 L 65.899 106.578 L 68.33 106.578 L 70.758 106.578 L 70.755 107.608 C 70.749 109.415 70.43 110.405 69.812 110.534 C 68.077 110.896 69.341 111.301 71.972 111.226 C 74.683 111.149 75.553 110.821 73.791 110.54 C 72.608 110.351 72.538 110.082 72.645 106.092 L 72.732 102.82 L 73.724 102.587 C 75.401 102.193 74.648 101.899 71.881 101.867 C 69.377 101.838 68.245 102.193 69.802 102.517 C 70.372 102.636 70.758 103.592 70.758 104.884 C 70.758 105.643 69.679 105.878 67.191 105.659 L 65.899 105.545 L 65.899 104.142 C 65.899 102.779 65.927 102.733 66.81 102.578 C 67.312 102.49 67.721 102.29 67.721 102.134 C 67.721 101.866 62.704 101.694 62.382 101.952 Z  M 79.483 102.219 C 74.265 104.481 75.195 112.134 80.591 111.326 C 81.574 111.178 84.119 109.663 84.119 109.225 C 84.119 108.875 83.323 108.963 82.912 109.358 C 81.345 110.866 78.046 109.469 78.046 107.3 C 78.046 106.49 81.492 106.683 81.638 107.5 C 81.82 108.528 82.438 107.893 82.495 106.62 C 82.55 105.413 82.076 104.912 81.539 105.608 C 81.272 105.951 78.046 105.921 78.046 105.575 C 78.046 104.612 78.809 103.433 79.602 103.172 C 80.965 102.721 82.601 103.064 82.601 103.801 C 82.601 104.717 83.414 104.524 83.642 103.554 C 83.751 103.091 84.073 102.608 84.357 102.482 C 85.181 102.113 84.545 101.878 82.514 101.798 C 81.062 101.741 80.364 101.838 79.483 102.219 Z  M 85.03 102.149 C 85.03 102.313 85.36 102.513 85.762 102.593 C 86.463 102.734 89.384 105.859 89.384 106.468 C 89.384 107.019 85.893 110.413 85.178 110.557 C 83.49 110.895 84.741 111.305 87.464 111.305 C 90.249 111.305 91.218 110.916 89.282 110.577 C 88.157 110.38 88.156 110.404 89.395 108.668 L 90.411 107.244 L 91.368 108.772 C 91.895 109.613 92.25 110.49 92.158 110.723 C 92.01 111.094 92.267 111.154 94.288 111.225 C 96.514 111.302 97.699 110.725 95.766 110.503 C 95.341 110.455 94.528 109.719 93.392 108.355 L 91.662 106.281 L 92.37 105.518 C 92.759 105.098 93.488 104.298 93.989 103.741 C 94.534 103.133 95.234 102.664 95.734 102.573 C 97.471 102.252 96.661 101.805 94.443 101.86 C 93.274 101.889 92.32 101.98 92.326 102.061 C 92.331 102.143 92.413 102.371 92.508 102.569 C 92.603 102.767 92.284 103.479 91.798 104.151 L 90.914 105.372 L 90.107 104.122 C 89.247 102.791 89.269 102.456 90.21 102.456 C 90.535 102.456 90.8 102.32 90.8 102.153 C 90.8 101.933 90.021 101.851 87.916 101.851 C 85.834 101.851 85.03 101.933 85.03 102.149 Z  M 99.055 101.895 C 97.159 101.994 96.513 102.476 98.036 102.655 C 98.681 102.731 98.695 102.817 98.695 106.568 L 98.695 110.404 L 97.937 110.556 C 96.147 110.914 97.176 111.305 99.909 111.305 C 102.684 111.305 103.764 110.865 101.772 110.547 C 100.74 110.382 100.307 107.96 100.697 104.531 L 100.905 102.699 L 102.06 102.699 C 104.861 102.699 104.948 105.708 102.164 106.301 C 100.856 106.58 100.877 107.062 102.197 107.062 C 104.665 107.062 106.395 105.716 106.231 103.921 C 106.066 102.113 104.32 101.62 99.055 101.895 Z  M 110.655 102.351 C 108.381 103.545 106.965 105.942 107.318 108 C 107.82 110.924 110.807 112.207 113.622 110.708 C 115.764 109.568 116.061 108.66 114.021 109.49 C 111.508 110.513 110.115 109.934 109.488 107.608 L 109.275 106.82 L 111.1 106.82 C 112.762 106.82 112.934 106.869 113.023 107.365 C 113.199 108.357 113.725 107.818 113.82 106.55 C 113.904 105.423 113.861 105.322 113.364 105.501 C 113.062 105.61 112.024 105.743 111.057 105.797 L 109.298 105.894 L 109.507 105.206 C 110.091 103.281 110.886 102.757 112.793 103.043 C 113.688 103.177 113.879 103.31 113.879 103.801 C 113.879 104.617 114.671 104.562 114.932 103.729 C 115.047 103.362 115.357 102.871 115.621 102.637 C 116.804 101.589 112.571 101.344 110.655 102.351 Z  M 118.813 101.894 C 116.866 101.997 116.347 102.29 117.648 102.551 C 119.13 102.848 119.141 110.262 117.66 110.558 C 115.943 110.902 117.234 111.304 119.803 111.226 C 122.38 111.147 123.189 110.816 121.47 110.541 L 120.559 110.396 L 120.559 106.547 L 120.559 102.699 L 121.727 102.699 C 124.523 102.699 124.752 105.431 122.002 105.979 C 121.064 106.165 120.856 106.82 121.733 106.82 C 122.455 106.82 123.596 108.919 123.596 110.246 L 123.596 111.183 L 125.552 111.183 C 127.585 111.183 128.45 110.828 127.085 110.555 C 126.481 110.434 126.022 109.959 125.109 108.509 L 123.92 106.622 L 124.695 106.217 C 126.408 105.321 126.649 102.87 125.089 102.203 C 124.384 101.903 121.418 101.756 118.813 101.894 Z  M 127.544 102.046 C 127.543 103.592 128.783 104.94 129.016 103.65 C 129.139 102.975 129.548 102.708 130.466 102.703 C 131.316 102.698 131.492 103.442 131.486 107.032 C 131.481 110.062 131.404 110.298 130.336 110.565 C 129.718 110.719 129.485 111.248 130.056 111.201 C 130.178 111.191 131.438 111.183 132.857 111.183 C 135.426 111.183 136.358 110.833 134.555 110.545 C 133.408 110.362 133.322 110.056 133.317 106.168 C 133.313 102.738 133.39 102.567 134.838 102.822 C 135.589 102.953 135.743 103.1 135.743 103.688 C 135.743 104.155 135.896 104.396 136.198 104.396 C 136.471 104.396 136.654 104.172 136.654 103.836 C 136.654 103.528 136.854 103.064 137.099 102.806 C 137.957 101.9 137.704 101.846 132.554 101.849 C 129.798 101.85 127.544 101.939 127.544 102.046 Z  M 9.991 103.094 C 11.398 103.882 12.008 106.622 11.246 108.744 C 10.884 109.752 10.508 109.963 9.064 109.967 C 6.946 109.975 6.989 110.052 6.989 106.188 L 6.989 102.699 L 8.136 102.699 C 8.767 102.699 9.602 102.877 9.991 103.094 Z  M 35.221 103.541 C 37.058 104.868 36.735 109.376 34.761 109.975 C 32.35 110.707 30.216 107.823 31.003 104.895 C 31.509 103.013 33.573 102.351 35.221 103.541 Z  M 37.985 114.004 C 37.284 114.714 36.984 123.061 37.659 123.061 C 37.85 123.061 37.963 121.537 37.963 118.973 C 37.963 115.252 38.018 114.829 38.57 114.268 C 38.905 113.929 39.178 113.587 39.178 113.508 C 39.178 113.162 38.563 113.416 37.985 114.004 Z  M 56.992 113.526 C 56.54 113.887 56.812 115.504 57.431 116.132 C 58.023 116.732 58.034 116.815 57.583 117.213 C 57.061 117.674 56.829 123.304 57.333 123.304 C 57.465 123.304 58.227 122.773 59.026 122.125 C 61.436 120.172 61.394 118.55 58.88 116.534 C 57.42 115.363 57.332 115.222 57.482 114.324 C 57.633 113.425 57.464 113.15 56.992 113.526 Z  M 104.184 114.004 C 103.482 114.714 103.183 123.061 103.858 123.061 C 104.048 123.061 104.161 121.532 104.161 118.959 C 104.161 114.899 104.17 114.849 104.948 114.111 C 105.53 113.558 105.614 113.364 105.273 113.364 C 105.02 113.364 104.53 113.653 104.184 114.004 Z  M 117.965 114.93 C 117.211 115.531 116.994 116.032 117.488 116.032 C 117.636 116.032 117.981 115.759 118.254 115.425 C 118.854 114.693 119.664 114.648 120.408 115.305 C 121.597 116.354 119.749 117.636 118.331 116.746 C 117.619 116.299 117.608 116.301 116.593 117.138 L 115.57 117.98 L 116.669 118.857 L 117.768 119.734 L 118.739 119.181 C 119.789 118.585 120.057 118.69 120.445 119.854 C 120.763 120.808 119.423 122.577 118.381 122.577 C 117.719 122.577 116.509 120.823 116.861 120.373 C 117.155 119.998 117.141 119.909 116.786 119.909 C 115.598 119.909 116.088 121.638 117.593 122.762 L 118.33 123.311 L 119.369 122.754 C 121.199 121.773 121.638 119.759 120.31 118.449 L 119.749 117.896 L 118.782 118.467 L 117.814 119.039 L 117.156 118.513 C 116.154 117.713 117.104 116.871 118.418 117.394 C 119.83 117.957 121.47 117.162 121.47 115.915 C 121.47 115.357 120.095 114.334 119.345 114.334 C 118.995 114.334 118.375 114.603 117.965 114.93 Z  M 97.269 115.705 C 97.163 115.925 97.235 116.582 97.43 117.163 C 97.962 118.75 97.907 122.114 97.352 121.944 C 96.769 121.766 95.659 122.266 95.659 122.706 C 95.659 123.159 96.087 123.162 96.555 122.712 C 97.234 122.058 97.784 122.553 97.784 123.815 C 97.784 124.466 97.921 125 98.088 125 C 98.255 125 98.392 124.496 98.392 123.88 C 98.392 122.932 98.459 122.804 98.829 123.049 C 100.852 124.389 102.825 119.041 101.129 116.819 C 100.404 115.872 100.218 115.856 99.055 116.637 C 98.043 117.317 97.613 117.022 97.97 115.891 C 98.179 115.222 97.578 115.063 97.269 115.705 Z  M 12.041 115.978 C 11.929 116.122 11.977 116.309 12.147 116.392 C 12.325 116.481 12.455 117.663 12.455 119.202 C 12.455 122.334 13.034 122.979 14.871 121.896 L 15.753 121.375 L 16.097 122.206 C 16.632 123.503 15.82 124.505 14.226 124.512 C 13.11 124.517 12.455 124.285 12.455 123.884 C 12.455 123.465 12.817 123.45 13.335 123.849 C 13.653 124.094 13.708 124.059 13.619 123.667 C 13.449 122.916 12.032 123.005 11.895 123.775 C 11.755 124.569 12.56 125 14.184 125 C 16.44 125 17.395 123.749 16.568 121.879 C 16.306 121.287 16.096 120.003 16.092 118.97 C 16.086 117.067 15.456 115.839 14.603 116.066 C 14.348 116.133 14.428 116.361 14.863 116.802 C 15.87 117.824 15.776 120.666 14.713 121.333 C 13.331 122.201 13.062 121.836 13.062 119.081 C 13.062 116.697 12.592 115.266 12.041 115.978 Z  M 19.364 116.558 L 18.225 117.291 L 18.225 120.161 C 18.225 123.537 18.239 123.552 20.286 122.306 L 21.869 121.342 L 21.869 119.092 C 21.869 117.072 21.8 116.792 21.186 116.334 L 20.503 115.825 L 19.364 116.558 Z  M 23.002 115.934 C 22.879 116.032 23.003 116.312 23.278 116.554 C 23.689 116.916 23.748 117.345 23.61 118.954 C 23.322 122.311 24.241 123.733 26.004 122.659 C 26.769 122.193 27.031 122.127 27.031 122.397 C 27.031 122.807 27.756 123.371 28.017 123.163 C 28.111 123.088 27.997 122.735 27.763 122.377 C 27.469 121.929 27.337 120.845 27.336 118.88 C 27.335 117.143 27.217 116.032 27.031 116.032 C 26.847 116.032 26.727 117.117 26.727 118.802 L 26.727 121.574 L 25.811 122.094 L 24.896 122.615 L 24.47 121.808 C 24.166 121.229 24.092 120.417 24.209 118.94 C 24.371 116.911 23.742 115.343 23.002 115.934 Z  M 41.408 116.762 C 39.668 117.821 39.491 118.159 39.485 120.436 C 39.479 122.978 40.275 123.794 41.816 122.826 L 42.617 122.323 L 43.326 122.856 C 43.907 123.291 44.036 123.316 44.036 122.997 C 44.036 122.781 43.899 122.537 43.733 122.455 C 43.555 122.367 43.429 121.003 43.429 119.182 C 43.429 115.543 43.423 115.535 41.408 116.762 Z  M 44.644 115.882 C 44.644 115.933 44.85 116.288 45.103 116.671 C 45.457 117.205 45.517 117.811 45.369 119.316 C 45.12 121.849 46.001 123.635 47.167 122.957 C 48.328 122.281 48.578 122.268 49.189 122.853 C 49.673 123.316 49.788 123.347 49.795 123.015 C 49.801 122.789 49.669 122.537 49.502 122.455 C 49.325 122.367 49.199 120.998 49.199 119.169 C 49.199 117.239 49.082 116.032 48.895 116.032 C 48.71 116.032 48.591 117.107 48.591 118.773 L 48.591 121.516 L 47.689 122.047 L 46.787 122.58 L 46.29 121.814 C 45.888 121.192 45.834 120.662 46.006 119.016 C 46.18 117.351 46.13 116.876 45.728 116.387 C 45.312 115.881 44.644 115.57 44.644 115.882 Z  M 82.905 115.882 C 82.905 115.933 83.108 116.288 83.355 116.67 C 83.689 117.181 83.757 117.783 83.619 118.972 C 83.398 120.869 83.623 121.998 84.378 122.782 L 84.927 123.352 L 85.792 122.757 L 86.656 122.164 L 87.352 122.795 C 87.901 123.292 88.05 123.338 88.058 123.015 C 88.063 122.789 87.931 122.537 87.763 122.455 C 87.587 122.367 87.46 120.998 87.46 119.169 C 87.46 117.239 87.343 116.032 87.156 116.032 C 86.973 116.032 86.845 117.111 86.836 118.759 C 86.819 121.458 86.81 121.491 85.958 122.027 C 84.597 122.884 84.272 122.335 84.268 119.18 C 84.267 117.348 84.144 116.468 83.852 116.187 C 83.479 115.829 82.905 115.644 82.905 115.882 Z  M 112.441 116.729 C 110.603 117.891 110.479 118.16 110.6 120.73 C 110.712 123.097 111.353 123.694 112.804 122.783 L 113.648 122.253 L 114.198 122.836 C 114.872 123.548 115.397 123.249 114.779 122.505 C 114.471 122.135 114.288 121.009 114.182 118.848 L 114.03 115.725 L 112.441 116.729 Z  M 122.013 115.922 C 121.899 116.012 122.022 116.352 122.287 116.674 C 122.677 117.149 122.73 117.64 122.565 119.22 C 122.269 122.054 123.374 123.952 124.658 122.818 C 125.361 122.199 125.637 122.209 126.379 122.879 L 126.982 123.425 L 126.751 122.818 C 126.625 122.486 126.47 120.822 126.408 119.122 C 126.267 115.275 125.722 114.998 125.722 118.773 L 125.722 121.516 L 124.802 122.058 L 123.882 122.601 L 123.433 121.744 C 123.097 121.102 123.032 120.385 123.176 118.883 C 123.362 116.927 122.739 115.342 122.013 115.922 Z  M 30.603 116.434 C 30.182 116.771 30.018 116.785 29.621 116.522 C 29.048 116.142 28.587 116.4 29.101 116.811 C 29.339 117.001 29.46 118.107 29.46 120.079 C 29.46 121.906 29.578 123.061 29.764 123.061 C 29.947 123.061 30.071 122.025 30.078 120.455 C 30.089 118.107 30.158 117.782 30.783 117.172 L 31.477 116.496 L 31.837 117.126 C 32.035 117.472 32.332 117.689 32.497 117.607 C 32.891 117.412 32.01 116.032 31.491 116.032 C 31.281 116.032 30.881 116.212 30.603 116.434 Z  M 50.907 116.455 C 51.048 116.689 51.206 118.27 51.26 119.97 C 51.379 123.748 51.932 124.132 51.932 120.437 C 51.932 118.007 51.983 117.773 52.634 117.285 C 54.085 116.198 54.873 117.396 54.531 120.168 C 54.312 121.946 54.954 123.655 55.636 123.109 C 55.851 122.937 55.793 122.682 55.45 122.294 C 55.042 121.83 54.987 121.374 55.149 119.773 C 55.44 116.884 54.472 115.516 52.825 116.488 C 51.957 117.001 51.952 117.001 51.628 116.517 C 51.221 115.91 50.544 115.852 50.907 116.455 Z  M 63.321 116.514 C 62.806 116.969 62.752 116.971 62.388 116.575 C 61.88 116.02 61.506 116.335 61.928 116.964 C 62.109 117.234 62.256 118.712 62.256 120.258 C 62.256 121.965 62.375 123.061 62.56 123.061 C 62.744 123.061 62.864 121.983 62.864 120.311 C 62.864 117.899 62.935 117.509 63.451 117.136 C 64.079 116.683 64.686 116.802 64.686 117.379 C 64.686 117.571 64.822 117.728 64.988 117.728 C 65.437 117.728 65.357 117.183 64.82 116.57 C 64.238 115.908 64.018 115.899 63.321 116.514 Z  M 65.823 116.321 C 66.037 116.527 66.217 117.733 66.268 119.313 C 66.369 122.37 67.091 123.119 68.744 121.879 L 69.472 121.334 L 69.811 122.113 C 70.281 123.19 70.243 123.473 69.543 124.031 C 68.642 124.751 66.204 124.644 66.204 123.884 C 66.204 123.47 66.568 123.448 67.048 123.833 C 67.563 124.244 67.887 123.876 67.412 123.419 C 66.824 122.853 65.769 123.066 65.643 123.775 C 65.504 124.559 66.304 125 67.864 125 C 70.271 125 71.231 123.685 70.32 121.637 C 70.06 121.053 69.847 119.796 69.847 118.842 C 69.847 117.034 69.346 116.032 68.443 116.032 C 68.079 116.032 68.123 116.187 68.655 116.783 C 69.809 118.077 69.817 120.601 68.668 121.304 C 67.112 122.256 66.841 121.911 66.744 118.86 C 66.667 116.394 66.607 116.151 66.061 116.067 C 65.574 115.992 65.531 116.039 65.823 116.321 Z  M 79.209 116.724 L 78.198 117.445 L 78.094 120.159 C 77.968 123.473 78.12 123.65 80.07 122.464 C 81.85 121.381 81.947 121.208 81.968 119.061 C 81.997 116.248 81.028 115.428 79.209 116.724 Z  M 89.163 116.516 C 89.289 116.85 89.444 118.459 89.507 120.091 C 89.65 123.846 90.193 124.019 90.193 120.311 C 90.193 117.841 90.257 117.515 90.818 117.109 C 91.426 116.67 91.994 116.878 92.011 117.546 C 92.013 117.646 92.152 117.728 92.318 117.728 C 92.811 117.728 92.667 117.098 92.033 116.482 L 91.445 115.91 L 90.774 116.438 L 90.102 116.965 L 89.517 116.438 L 88.932 115.91 L 89.163 116.516 Z  M 106.933 116.649 C 105.396 117.681 105.493 122.349 107.066 123.009 C 107.576 123.223 107.858 123.166 108.584 122.704 C 109.709 121.986 109.415 121.693 108.144 122.266 C 105.842 123.304 105.825 119.985 108.126 118.613 L 109.661 117.699 L 109.11 116.945 C 108.374 115.939 108.054 115.895 106.933 116.649 Z  M 127.857 116.32 C 127.851 116.545 127.983 116.797 128.151 116.88 C 128.327 116.967 128.455 118.296 128.455 120.045 C 128.455 121.894 128.572 123.061 128.758 123.061 C 128.942 123.061 129.062 122.019 129.062 120.421 C 129.062 118.141 129.144 117.704 129.665 117.21 L 130.268 116.637 L 130.872 117.243 C 131.427 117.798 131.477 117.809 131.475 117.364 C 131.468 116.217 130.393 115.743 129.527 116.507 C 128.993 116.979 128.983 116.978 128.427 116.446 C 127.962 116 127.866 115.979 127.857 116.32 Z  M 133.29 116.74 C 131.984 117.782 131.918 121.995 133.193 122.796 C 134.029 123.32 134.633 123.23 135.431 122.462 C 136.024 121.892 135.601 121.753 134.704 122.222 C 132.808 123.214 132.116 120.048 133.998 118.997 C 136.229 117.751 136.13 117.885 135.546 116.907 C 134.911 115.846 134.452 115.812 133.29 116.74 Z  M 21.261 119.07 L 21.261 121.081 L 20.047 121.849 L 18.832 122.617 L 18.832 120.161 C 18.832 117.816 18.869 117.678 19.636 117.111 C 20.88 116.19 21.261 116.65 21.261 119.07 Z  M 42 122.029 C 39.581 123.581 39.061 118.985 41.471 117.368 L 42.669 116.563 L 42.758 119.025 C 42.847 121.463 42.84 121.49 42 122.029 Z  M 81.332 118.571 C 81.501 120.706 81.293 121.189 79.874 121.938 L 78.653 122.583 L 78.653 120.259 C 78.653 116.485 81.045 114.979 81.332 118.571 Z  M 100.811 117.227 C 101.965 118.95 100.524 122.935 98.923 122.445 C 98.046 122.176 98.15 118.087 99.051 117.32 C 99.857 116.635 100.395 116.607 100.811 117.227 Z  M 108.544 117.166 C 108.725 117.543 107.454 118.665 106.819 118.689 C 106.393 118.705 106.589 117.647 107.093 117.201 C 107.721 116.649 108.288 116.634 108.544 117.166 Z  M 112.903 122.102 C 111.62 122.962 111.307 122.653 111.209 120.43 L 111.12 118.41 L 112.271 117.542 L 113.423 116.675 L 113.51 119.156 C 113.591 121.485 113.554 121.665 112.903 122.102 Z  M 134.968 117.178 C 135.109 117.473 134.874 117.791 134.165 118.254 C 133.215 118.878 133.155 118.887 133.062 118.428 C 132.84 117.347 134.52 116.246 134.968 117.178 Z  M 59.531 117.91 C 60.53 118.921 60.227 120.429 58.797 121.572 L 57.701 122.447 L 57.701 120.136 C 57.701 117.22 58.222 116.586 59.531 117.91 Z  M 71.973 122.296 C 71.973 122.427 72.144 122.586 72.353 122.647 C 72.641 122.732 72.609 122.939 72.218 123.51 C 71.599 124.418 72.046 124.779 72.742 123.931 C 73.347 123.195 73.222 122.246 72.504 122.137 C 72.213 122.092 71.973 122.164 71.973 122.296 Z " fill-rule="evenodd" fill="rgb(250,250,251)"/><path d=" M 72.429 0.265 C 71.761 0.459 70.828 0.978 70.356 1.419 C 68.007 3.618 4.92 96.559 6.979 94.789 C 7.115 94.673 7.906 93.919 8.738 93.111 C 11.086 90.835 22.01 84.418 33.257 78.71 C 48.176 71.137 50.931 69.345 53.586 65.49 C 61.084 54.605 61.649 54.241 71.117 54.221 C 73.65 54.217 73.397 55.011 73.786 45.855 C 74.184 36.556 73.929 37.543 76.974 33.498 C 81.892 26.965 81.834 20.938 76.815 16.931 C 73.746 14.482 70.856 15.723 67.752 20.826 C 66.106 23.533 65.521 23.943 64.967 22.778 C 64.712 22.244 64.768 22.013 65.273 21.506 C 65.613 21.166 66.388 20.178 66.997 19.311 C 69.924 15.146 71.159 14.221 73.793 14.221 C 82.121 14.221 84.537 26.891 77.745 34.947 C 74.967 38.24 75.161 37.439 75.164 45.612 C 75.166 49.612 75.267 53.167 75.386 53.513 L 75.605 54.142 L 80.448 54.286 C 87.645 54.5 88.436 55.063 95.673 65.126 C 98.447 68.983 99.814 69.799 118.434 78.702 C 128.498 83.513 135.177 87.118 138.591 89.583 C 139.072 89.931 139.414 90.096 139.35 89.952 C 139.046 89.26 79.392 2.363 78.751 1.675 C 77.378 0.206 74.698 -0.392 72.429 0.265 Z  M 71.062 58.351 C 62.64 58.615 62.717 58.571 57.263 66.265 C 53.012 72.263 52.588 72.676 47.467 75.8 C 42.024 79.121 36.741 81.955 30.068 85.136 C 18.616 90.596 7.681 97.612 8.858 98.744 C 9.894 99.74 13.757 100.154 16.393 99.55 C 17.085 99.392 17.543 99.392 17.742 99.55 C 18.271 99.973 137.705 99.871 138.718 99.447 C 140.246 98.808 141.607 97.476 141.26 96.959 C 139.743 94.696 130.577 89.068 120.711 84.343 C 99.153 74.016 97.186 72.804 93.092 67.308 C 85.643 57.308 86.983 57.852 71.062 58.351 Z " fill-rule="evenodd" fill="rgb(92,148,243)"/><path d=" M 76.401 14.92 C 76.914 15.171 77.783 15.797 78.33 16.312 C 78.876 16.829 79.181 17.023 79.005 16.745 C 78.592 16.091 76.336 14.463 75.844 14.463 C 75.636 14.464 75.886 14.67 76.401 14.92 Z  M 73.415 15.846 C 73.791 15.903 74.406 15.903 74.782 15.846 C 75.157 15.788 74.85 15.741 74.098 15.741 C 73.347 15.741 73.039 15.788 73.415 15.846 Z  M 77.105 17.008 C 77.283 17.275 77.787 17.82 78.221 18.22 C 78.656 18.62 78.864 18.73 78.685 18.462 C 78.505 18.196 78.003 17.651 77.568 17.251 C 77.133 16.851 76.925 16.741 77.105 17.008 Z  M 67.257 21.253 C 66.125 23.054 65.55 23.523 65.189 22.941 C 65.103 22.805 65.069 22.832 65.113 23.002 C 65.339 23.896 66.176 23.336 67.389 21.48 C 68.098 20.396 68.629 19.469 68.57 19.422 C 68.511 19.375 67.92 20.199 67.257 21.253 Z  M 66.48 20.099 C 66.287 20.398 65.837 20.916 65.483 21.248 L 64.837 21.853 L 65.551 21.37 C 66.229 20.913 67.299 19.553 66.981 19.553 C 66.899 19.553 66.674 19.799 66.48 20.099 Z  M 80.956 29.094 C 80.833 29.742 80.131 31.215 79.397 32.367 C 78.661 33.519 78.273 34.243 78.534 33.977 C 79.917 32.558 81.64 29.001 81.315 28.234 C 81.241 28.06 81.079 28.447 80.956 29.094 Z  M 79.726 29.426 C 79.548 29.994 78.56 31.43 76.1 34.704 C 75.649 35.303 75.642 35.346 76.065 34.947 C 77.594 33.499 80.673 28.765 80.086 28.765 C 80.003 28.765 79.841 29.062 79.726 29.426 Z  M 75.08 39.188 C 75.08 39.655 75.143 39.846 75.219 39.613 C 75.295 39.379 75.295 38.997 75.219 38.764 C 75.143 38.531 75.08 38.722 75.08 39.188 Z  M 73.91 45.369 C 73.912 46.969 73.961 47.593 74.02 46.754 C 74.08 45.916 74.079 44.607 74.019 43.845 C 73.959 43.084 73.91 43.77 73.91 45.369 Z  M 73.592 51.187 C 73.593 52.121 73.647 52.473 73.713 51.97 C 73.778 51.467 73.777 50.704 73.71 50.273 C 73.644 49.843 73.589 50.255 73.592 51.187 Z  M 73.187 53.935 C 73.187 54.125 72.317 54.233 70.531 54.267 L 67.874 54.316 L 70.427 54.399 C 72.787 54.474 73.937 54.25 73.396 53.818 C 73.281 53.726 73.187 53.779 73.187 53.935 Z  M 77.515 54.397 C 78.476 54.445 80.047 54.445 81.007 54.397 C 81.967 54.349 81.181 54.31 79.261 54.31 C 77.34 54.31 76.555 54.349 77.515 54.397 Z  M 84.448 54.547 C 84.518 54.595 84.985 54.707 85.486 54.797 C 86.152 54.916 86.274 54.893 85.941 54.713 C 85.531 54.492 84.144 54.337 84.448 54.547 Z  M 62.711 54.984 C 61.838 55.368 60.18 56.644 59.454 57.49 C 59.111 57.89 59.479 57.641 60.271 56.938 C 61.063 56.234 62.209 55.448 62.818 55.191 C 63.427 54.934 63.789 54.722 63.622 54.721 C 63.456 54.719 63.046 54.837 62.711 54.984 Z  M 70.847 58.276 C 71.981 58.323 73.758 58.322 74.794 58.275 C 75.832 58.228 74.903 58.189 72.732 58.19 C 70.561 58.19 69.713 58.229 70.847 58.276 Z  M 61.9 60.013 C 61.051 60.809 59.389 62.836 59.895 62.459 C 60.245 62.198 63.136 59.066 63.026 59.066 C 62.963 59.066 62.456 59.492 61.9 60.013 Z  M 91.672 60.157 C 91.836 60.423 92.193 60.859 92.465 61.126 L 92.959 61.611 L 92.661 61.126 C 92.497 60.859 92.14 60.423 91.868 60.157 L 91.374 59.672 L 91.672 60.157 Z  M 93.468 62.52 C 93.794 62.954 94.631 64.099 95.328 65.065 C 96.026 66.032 96.67 66.822 96.76 66.822 C 96.849 66.822 96.657 66.468 96.331 66.035 C 96.005 65.602 95.168 64.456 94.471 63.49 C 93.773 62.523 93.129 61.732 93.039 61.732 C 92.95 61.732 93.143 62.086 93.468 62.52 Z  M 90.049 63.324 C 90.331 63.733 90.832 64.333 91.161 64.657 L 91.761 65.247 L 91.249 64.503 C 90.966 64.095 90.465 63.495 90.135 63.171 L 89.535 62.581 L 90.049 63.324 Z  M 92.492 66.52 C 94.432 69.183 96.05 70.915 97.981 72.398 L 100.034 73.974 L 97.77 72.035 C 96.525 70.968 94.701 69.031 93.719 67.731 C 92.736 66.432 91.869 65.368 91.793 65.368 C 91.716 65.368 92.031 65.886 92.492 66.52 Z  M 52.663 66.762 C 52.199 67.395 51.195 68.469 50.433 69.147 C 49.199 70.243 49.231 70.229 50.717 69.012 C 51.636 68.26 52.703 67.188 53.09 66.628 C 54.054 65.231 53.706 65.34 52.663 66.762 Z  M 54.522 69.717 C 54.268 70.109 53.357 71.171 52.498 72.078 C 51.638 72.985 51.171 73.569 51.46 73.378 C 52.415 72.746 55.561 69.004 55.138 69.004 C 55.053 69.004 54.776 69.325 54.522 69.717 Z  M 101.428 70.305 C 101.428 70.371 101.838 70.658 102.339 70.944 C 102.84 71.228 103.25 71.407 103.25 71.34 C 103.25 71.274 102.84 70.986 102.339 70.701 C 101.838 70.417 101.428 70.238 101.428 70.305 Z  M 46.313 71.813 L 45.402 72.438 L 46.39 71.917 C 46.933 71.63 47.377 71.348 47.377 71.291 C 47.377 71.109 47.248 71.172 46.313 71.813 Z  M 104.01 71.797 C 104.343 72.014 104.89 72.298 105.225 72.429 L 105.831 72.667 L 105.225 72.273 C 104.89 72.056 104.343 71.77 104.01 71.639 L 103.403 71.402 L 104.01 71.797 Z  M 40.918 74.68 C 38.697 75.887 37.553 76.604 38.57 76.152 C 39.588 75.698 43.429 73.587 43.429 73.482 C 43.429 73.312 43.46 73.297 40.918 74.68 Z  M 111.753 75.658 C 111.753 75.724 112.163 75.948 112.664 76.155 C 113.165 76.363 113.575 76.477 113.575 76.41 C 113.575 76.344 113.165 76.12 112.664 75.913 C 112.163 75.706 111.753 75.592 111.753 75.658 Z  M 42.973 78.248 C 41.178 79.321 40.94 79.613 42.578 78.733 C 43.363 78.312 44.088 77.86 44.191 77.728 C 44.457 77.383 44.327 77.439 42.973 78.248 Z  M 108.868 78.583 C 109.202 78.801 109.749 79.086 110.082 79.217 L 110.69 79.454 L 110.082 79.06 C 109.749 78.842 109.202 78.558 108.868 78.427 L 108.26 78.189 L 108.868 78.583 Z  M 115.852 81.97 C 116.531 82.421 118.454 83.251 117.978 82.888 C 117.811 82.761 117.128 82.411 116.459 82.112 C 115.792 81.813 115.519 81.749 115.852 81.97 Z  M 25.285 82.846 C 24.575 83.247 23.994 83.629 23.994 83.695 C 23.994 83.76 24.609 83.477 25.361 83.064 C 26.112 82.651 26.727 82.264 26.727 82.204 C 26.727 82.037 26.67 82.062 25.285 82.846 Z  M 119.345 83.658 C 119.345 83.724 119.755 83.948 120.256 84.155 C 120.757 84.362 121.167 84.477 121.167 84.409 C 121.167 84.343 120.757 84.119 120.256 83.912 C 119.755 83.706 119.345 83.591 119.345 83.658 Z  M 21.717 84.903 L 20.806 85.528 L 21.793 85.007 C 22.336 84.72 22.78 84.438 22.78 84.381 C 22.78 84.199 22.651 84.262 21.717 84.903 Z  M 129.669 84.374 C 129.669 84.44 130.284 84.833 131.035 85.246 C 131.787 85.658 132.402 85.942 132.402 85.875 C 132.402 85.808 131.787 85.416 131.035 85.003 C 130.284 84.59 129.669 84.307 129.669 84.374 Z  M 132.706 86.049 C 132.706 86.108 133.208 86.463 133.82 86.836 C 134.433 87.21 134.84 87.392 134.722 87.24 C 134.482 86.93 132.706 85.88 132.706 86.049 Z  M 18.377 86.843 L 17.466 87.467 L 18.453 86.946 C 18.995 86.659 19.439 86.377 19.439 86.32 C 19.439 86.138 19.31 86.202 18.377 86.843 Z  M 126.005 86.896 C 126.412 87.16 127.163 87.56 127.675 87.785 L 128.606 88.194 L 127.867 87.715 C 127.461 87.453 126.709 87.053 126.197 86.827 L 125.266 86.417 L 126.005 86.896 Z  M 16.251 88.054 L 15.34 88.679 L 16.327 88.158 C 16.87 87.871 17.314 87.59 17.314 87.532 C 17.314 87.351 17.186 87.414 16.251 88.054 Z  M 23.463 88.179 C 22.753 88.58 22.172 88.962 22.172 89.028 C 22.172 89.094 22.787 88.81 23.539 88.397 C 24.29 87.985 24.905 87.597 24.905 87.537 C 24.905 87.37 24.848 87.395 23.463 88.179 Z  M 128.758 88.242 C 128.758 88.302 129.456 88.752 130.307 89.241 C 131.16 89.729 131.768 90.013 131.659 89.873 C 131.43 89.577 128.758 88.074 128.758 88.242 Z  M 137.867 89.311 C 138.786 89.981 139.589 90.49 139.652 90.443 C 139.769 90.354 138.364 89.359 136.976 88.548 C 136.548 88.298 136.95 88.641 137.867 89.311 Z  M 13.659 89.626 L 12.607 90.371 L 13.745 89.719 C 14.752 89.143 15.08 88.882 14.798 88.882 C 14.749 88.882 14.236 89.217 13.659 89.626 Z  M 20.806 89.752 L 19.895 90.376 L 20.882 89.855 C 21.425 89.568 21.869 89.286 21.869 89.229 C 21.869 89.047 21.74 89.111 20.806 89.752 Z  M 10.454 91.689 L 8.66 93.04 L 10.557 91.756 C 11.601 91.049 12.455 90.441 12.455 90.403 C 12.455 90.22 12.109 90.443 10.454 91.689 Z  M 15.948 92.666 L 14.733 93.533 L 16.023 92.763 C 17.134 92.1 17.535 91.78 17.238 91.794 C 17.196 91.796 16.615 92.189 15.948 92.666 Z  M 138.939 94.945 C 140.271 96.08 141.423 96.976 141.498 96.936 C 141.574 96.896 140.484 95.967 139.078 94.872 L 136.519 92.881 L 138.939 94.945 Z  M 10.617 96.093 L 9.571 97.002 L 10.71 96.167 C 11.769 95.389 11.987 95.184 11.756 95.184 C 11.705 95.184 11.192 95.593 10.617 96.093 Z " fill-rule="evenodd" fill="rgb(151,187,244)"/></g><path d=" M 76.401 14.92 C 76.914 15.171 77.783 15.797 78.33 16.312 C 78.876 16.829 79.181 17.023 79.005 16.745 C 78.592 16.091 76.336 14.463 75.844 14.463 C 75.636 14.464 75.886 14.67 76.401 14.92 Z  M 73.415 15.846 C 73.791 15.903 74.406 15.903 74.782 15.846 C 75.157 15.788 74.85 15.741 74.098 15.741 C 73.347 15.741 73.039 15.788 73.415 15.846 Z  M 77.105 17.008 C 77.283 17.275 77.787 17.82 78.221 18.22 C 78.656 18.62 78.864 18.73 78.685 18.462 C 78.505 18.196 78.003 17.651 77.568 17.251 C 77.133 16.851 76.925 16.741 77.105 17.008 Z  M 67.257 21.253 C 66.125 23.054 65.55 23.523 65.189 22.941 C 65.103 22.805 65.069 22.832 65.113 23.002 C 65.339 23.896 66.176 23.336 67.389 21.48 C 68.098 20.396 68.629 19.469 68.57 19.422 C 68.511 19.375 67.92 20.199 67.257 21.253 Z  M 66.48 20.099 C 66.287 20.398 65.837 20.916 65.483 21.248 L 64.837 21.853 L 65.551 21.37 C 66.229 20.913 67.299 19.553 66.981 19.553 C 66.899 19.553 66.674 19.799 66.48 20.099 Z  M 80.956 29.094 C 80.833 29.742 80.131 31.215 79.397 32.367 C 78.661 33.519 78.273 34.243 78.534 33.977 C 79.917 32.558 81.64 29.001 81.315 28.234 C 81.241 28.06 81.079 28.447 80.956 29.094 Z  M 79.726 29.426 C 79.548 29.994 78.56 31.43 76.1 34.704 C 75.649 35.303 75.642 35.346 76.065 34.947 C 77.594 33.499 80.673 28.765 80.086 28.765 C 80.003 28.765 79.841 29.062 79.726 29.426 Z  M 75.08 39.188 C 75.08 39.655 75.143 39.846 75.219 39.613 C 75.295 39.379 75.295 38.997 75.219 38.764 C 75.143 38.531 75.08 38.722 75.08 39.188 Z  M 73.91 45.369 C 73.912 46.969 73.961 47.593 74.02 46.754 C 74.08 45.916 74.079 44.607 74.019 43.845 C 73.959 43.084 73.91 43.77 73.91 45.369 Z  M 73.592 51.187 C 73.593 52.121 73.647 52.473 73.713 51.97 C 73.778 51.467 73.777 50.704 73.71 50.273 C 73.644 49.843 73.589 50.255 73.592 51.187 Z  M 73.187 53.935 C 73.187 54.125 72.317 54.233 70.531 54.267 L 67.874 54.316 L 70.427 54.399 C 72.787 54.474 73.937 54.25 73.396 53.818 C 73.281 53.726 73.187 53.779 73.187 53.935 Z  M 77.515 54.397 C 78.476 54.445 80.047 54.445 81.007 54.397 C 81.967 54.349 81.181 54.31 79.261 54.31 C 77.34 54.31 76.555 54.349 77.515 54.397 Z  M 84.448 54.547 C 84.518 54.595 84.985 54.707 85.486 54.797 C 86.152 54.916 86.274 54.893 85.941 54.713 C 85.531 54.492 84.144 54.337 84.448 54.547 Z  M 62.711 54.984 C 61.838 55.368 60.18 56.644 59.454 57.49 C 59.111 57.89 59.479 57.641 60.271 56.938 C 61.063 56.234 62.209 55.448 62.818 55.191 C 63.427 54.934 63.789 54.722 63.622 54.721 C 63.456 54.719 63.046 54.837 62.711 54.984 Z  M 70.847 58.276 C 71.981 58.323 73.758 58.322 74.794 58.275 C 75.832 58.228 74.903 58.189 72.732 58.19 C 70.561 58.19 69.713 58.229 70.847 58.276 Z  M 61.9 60.013 C 61.051 60.809 59.389 62.836 59.895 62.459 C 60.245 62.198 63.136 59.066 63.026 59.066 C 62.963 59.066 62.456 59.492 61.9 60.013 Z  M 91.672 60.157 C 91.836 60.423 92.193 60.859 92.465 61.126 L 92.959 61.611 L 92.661 61.126 C 92.497 60.859 92.14 60.423 91.868 60.157 L 91.374 59.672 L 91.672 60.157 Z  M 93.468 62.52 C 93.794 62.954 94.631 64.099 95.328 65.065 C 96.026 66.032 96.67 66.822 96.76 66.822 C 96.849 66.822 96.657 66.468 96.331 66.035 C 96.005 65.602 95.168 64.456 94.471 63.49 C 93.773 62.523 93.129 61.732 93.039 61.732 C 92.95 61.732 93.143 62.086 93.468 62.52 Z  M 90.049 63.324 C 90.331 63.733 90.832 64.333 91.161 64.657 L 91.761 65.247 L 91.249 64.503 C 90.966 64.095 90.465 63.495 90.135 63.171 L 89.535 62.581 L 90.049 63.324 Z  M 92.492 66.52 C 94.432 69.183 96.05 70.915 97.981 72.398 L 100.034 73.974 L 97.77 72.035 C 96.525 70.968 94.701 69.031 93.719 67.731 C 92.736 66.432 91.869 65.368 91.793 65.368 C 91.716 65.368 92.031 65.886 92.492 66.52 Z  M 52.663 66.762 C 52.199 67.395 51.195 68.469 50.433 69.147 C 49.199 70.243 49.231 70.229 50.717 69.012 C 51.636 68.26 52.703 67.188 53.09 66.628 C 54.054 65.231 53.706 65.34 52.663 66.762 Z  M 54.522 69.717 C 54.268 70.109 53.357 71.171 52.498 72.078 C 51.638 72.985 51.171 73.569 51.46 73.378 C 52.415 72.746 55.561 69.004 55.138 69.004 C 55.053 69.004 54.776 69.325 54.522 69.717 Z  M 101.428 70.305 C 101.428 70.371 101.838 70.658 102.339 70.944 C 102.84 71.228 103.25 71.407 103.25 71.34 C 103.25 71.274 102.84 70.986 102.339 70.701 C 101.838 70.417 101.428 70.238 101.428 70.305 Z  M 46.313 71.813 L 45.402 72.438 L 46.39 71.917 C 46.933 71.63 47.377 71.348 47.377 71.291 C 47.377 71.109 47.248 71.172 46.313 71.813 Z  M 104.01 71.797 C 104.343 72.014 104.89 72.298 105.225 72.429 L 105.831 72.667 L 105.225 72.273 C 104.89 72.056 104.343 71.77 104.01 71.639 L 103.403 71.402 L 104.01 71.797 Z  M 40.918 74.68 C 38.697 75.887 37.553 76.604 38.57 76.152 C 39.588 75.698 43.429 73.587 43.429 73.482 C 43.429 73.312 43.46 73.297 40.918 74.68 Z  M 111.753 75.658 C 111.753 75.724 112.163 75.948 112.664 76.155 C 113.165 76.363 113.575 76.477 113.575 76.41 C 113.575 76.344 113.165 76.12 112.664 75.913 C 112.163 75.706 111.753 75.592 111.753 75.658 Z  M 42.973 78.248 C 41.178 79.321 40.94 79.613 42.578 78.733 C 43.363 78.312 44.088 77.86 44.191 77.728 C 44.457 77.383 44.327 77.439 42.973 78.248 Z  M 108.868 78.583 C 109.202 78.801 109.749 79.086 110.082 79.217 L 110.69 79.454 L 110.082 79.06 C 109.749 78.842 109.202 78.558 108.868 78.427 L 108.26 78.189 L 108.868 78.583 Z  M 115.852 81.97 C 116.531 82.421 118.454 83.251 117.978 82.888 C 117.811 82.761 117.128 82.411 116.459 82.112 C 115.792 81.813 115.519 81.749 115.852 81.97 Z  M 25.285 82.846 C 24.575 83.247 23.994 83.629 23.994 83.695 C 23.994 83.76 24.609 83.477 25.361 83.064 C 26.112 82.651 26.727 82.264 26.727 82.204 C 26.727 82.037 26.67 82.062 25.285 82.846 Z  M 119.345 83.658 C 119.345 83.724 119.755 83.948 120.256 84.155 C 120.757 84.362 121.167 84.477 121.167 84.409 C 121.167 84.343 120.757 84.119 120.256 83.912 C 119.755 83.706 119.345 83.591 119.345 83.658 Z  M 21.717 84.903 L 20.806 85.528 L 21.793 85.007 C 22.336 84.72 22.78 84.438 22.78 84.381 C 22.78 84.199 22.651 84.262 21.717 84.903 Z  M 129.669 84.374 C 129.669 84.44 130.284 84.833 131.035 85.246 C 131.787 85.658 132.402 85.942 132.402 85.875 C 132.402 85.808 131.787 85.416 131.035 85.003 C 130.284 84.59 129.669 84.307 129.669 84.374 Z  M 132.706 86.049 C 132.706 86.108 133.208 86.463 133.82 86.836 C 134.433 87.21 134.84 87.392 134.722 87.24 C 134.482 86.93 132.706 85.88 132.706 86.049 Z  M 18.377 86.843 L 17.466 87.467 L 18.453 86.946 C 18.995 86.659 19.439 86.377 19.439 86.32 C 19.439 86.138 19.31 86.202 18.377 86.843 Z  M 126.005 86.896 C 126.412 87.16 127.163 87.56 127.675 87.785 L 128.606 88.194 L 127.867 87.715 C 127.461 87.453 126.709 87.053 126.197 86.827 L 125.266 86.417 L 126.005 86.896 Z  M 16.251 88.054 L 15.34 88.679 L 16.327 88.158 C 16.87 87.871 17.314 87.59 17.314 87.532 C 17.314 87.351 17.186 87.414 16.251 88.054 Z  M 23.463 88.179 C 22.753 88.58 22.172 88.962 22.172 89.028 C 22.172 89.094 22.787 88.81 23.539 88.397 C 24.29 87.985 24.905 87.597 24.905 87.537 C 24.905 87.37 24.848 87.395 23.463 88.179 Z  M 128.758 88.242 C 128.758 88.302 129.456 88.752 130.307 89.241 C 131.16 89.729 131.768 90.013 131.659 89.873 C 131.43 89.577 128.758 88.074 128.758 88.242 Z  M 137.867 89.311 C 138.786 89.981 139.589 90.49 139.652 90.443 C 139.769 90.354 138.364 89.359 136.976 88.548 C 136.548 88.298 136.95 88.641 137.867 89.311 Z  M 13.659 89.626 L 12.607 90.371 L 13.745 89.719 C 14.752 89.143 15.08 88.882 14.798 88.882 C 14.749 88.882 14.236 89.217 13.659 89.626 Z  M 20.806 89.752 L 19.895 90.376 L 20.882 89.855 C 21.425 89.568 21.869 89.286 21.869 89.229 C 21.869 89.047 21.74 89.111 20.806 89.752 Z  M 10.454 91.689 L 8.66 93.04 L 10.557 91.756 C 11.601 91.049 12.455 90.441 12.455 90.403 C 12.455 90.22 12.109 90.443 10.454 91.689 Z  M 15.948 92.666 L 14.733 93.533 L 16.023 92.763 C 17.134 92.1 17.535 91.78 17.238 91.794 C 17.196 91.796 16.615 92.189 15.948 92.666 Z  M 138.939 94.945 C 140.271 96.08 141.423 96.976 141.498 96.936 C 141.574 96.896 140.484 95.967 139.078 94.872 L 136.519 92.881 L 138.939 94.945 Z  M 10.617 96.093 L 9.571 97.002 L 10.71 96.167 C 11.769 95.389 11.987 95.184 11.756 95.184 C 11.705 95.184 11.192 95.593 10.617 96.093 Z " fill-rule="evenodd" fill="rgb(151,187,244)"/></g></g></svg>